<svg width="512" height="512" viewBox="0 0 512 512" fill="none" xmlns="http://www.w3.org/2000/svg">
<path d="M0 97H71.6819C92.2312 97 110.475 110.138 116.973 129.616L212.184 415H140.502C119.953 415 101.709 401.862 95.2105 382.384L0 97Z" fill="#0041DC"/>
<path d="M0 97H71.6819C92.2312 97 110.475 110.138 116.973 129.616L212.184 415H140.502C119.953 415 101.709 401.862 95.2105 382.384L0 97Z" fill="#0041DC"/>
<path d="M212.184 97H283.866C304.415 97 322.659 110.138 329.157 129.616L424.368 415H352.686C332.136 415 313.893 401.862 307.394 382.384L212.184 97Z" fill="#0041DC"/>
<path d="M212.184 97H283.866C304.415 97 322.659 110.138 329.157 129.616L424.368 415H352.686C332.136 415 313.893 401.862 307.394 382.384L212.184 97Z" fill="#0041DC"/>
<path d="M424.368 415L371.322 255.999L424.368 97H464.222C496.808 97 519.818 128.897 509.513 159.784L424.368 415Z" fill="#00001E"/>
<path d="M265.23 256L212.184 415L159.138 255.999L212.184 97L265.23 256Z" fill="#00001E"/>
</svg>
