<svg width="113" height="68" viewBox="0 0 113 68" fill="none" xmlns="http://www.w3.org/2000/svg">
<path d="M0 0H15.2699C19.6474 0 23.5336 2.8094 24.9181 6.97449L45.2 68H29.9301C25.5527 68 21.6663 65.1907 20.282 61.0255L0 0Z" fill="#0041DC"/>
<path d="M0 0H15.2699C19.6474 0 23.5336 2.8094 24.9181 6.97449L45.2 68H29.9301C25.5527 68 21.6663 65.1907 20.282 61.0255L0 0Z" fill="#0041DC"/>
<path d="M45.2002 0H60.4701C64.8475 0 68.7338 2.8094 70.1183 6.97449L90.4002 68H75.1303C70.7529 68 66.8666 65.1907 65.4821 61.0255L45.2002 0Z" fill="#0041DC"/>
<path d="M45.2002 0H60.4701C64.8475 0 68.7338 2.8094 70.1183 6.97449L90.4002 68H75.1303C70.7529 68 66.8666 65.1907 65.4821 61.0255L45.2002 0Z" fill="#0041DC"/>
<path d="M90.4001 68L79.1001 33.9998L90.4001 0H98.89C105.832 0 110.733 6.82072 108.538 13.4255L90.4001 68Z" fill="#FAFAFF"/>
<path d="M56.4999 34L45.1999 68L39.5499 51L33.8999 33.9998L45.1999 0L56.4999 34Z" fill="#FAFAFF"/>
</svg>
